<svg width="62" height="62" viewBox="0 0 62 62" fill="none" xmlns="http://www.w3.org/2000/svg">
<circle cx="31" cy="31" r="31" fill="#D5F3F2"/>
<path d="M28.9922 21.476L28.9922 37.9632L21.5956 30.7602C21.0044 30.1845 20.0344 30.1845 19.4433 30.7602C19.3027 30.8967 19.1913 31.0589 19.1152 31.2375C19.0391 31.4161 19 31.6075 19 31.8008C19 31.9941 19.0391 32.1855 19.1152 32.3641C19.1913 32.5426 19.3027 32.7048 19.4433 32.8414L29.4318 42.5683C29.572 42.7052 29.7385 42.8137 29.9219 42.8878C30.1053 42.9619 30.3018 43 30.5003 43C30.6988 43 30.8954 42.9619 31.0788 42.8878C31.2621 42.8137 31.4287 42.7052 31.5689 42.5683L41.5574 32.8414C41.6977 32.7047 41.809 32.5425 41.885 32.3639C41.9609 32.1854 42 31.994 42 31.8008C42 31.6075 41.9609 31.4162 41.885 31.2376C41.809 31.0591 41.6977 30.8968 41.5574 30.7602C41.4171 30.6235 41.2505 30.5151 41.0671 30.4412C40.8838 30.3672 40.6873 30.3292 40.4888 30.3292C40.2904 30.3292 40.0939 30.3672 39.9105 30.4412C39.7272 30.5151 39.5606 30.6235 39.4202 30.7602L32.0236 37.9632L32.0236 21.476C32.0236 20.6642 31.3415 20 30.5079 20C29.6743 20 28.9922 20.6642 28.9922 21.476Z" fill="#1DBCAB"/>
</svg>
