<svg width="62" height="62" viewBox="0 0 62 62" fill="none" xmlns="http://www.w3.org/2000/svg">
<circle r="31" transform="matrix(1 0 0 -1 31 31)" fill="#6B8EFF"/>
<path d="M28.9922 31.524L28.9922 15.0368L21.5956 22.2398C21.0044 22.8155 20.0344 22.8155 19.4433 22.2398C19.3027 22.1033 19.1913 21.9411 19.1152 21.7625C19.0391 21.5839 19 21.3925 19 21.1992C19 21.0059 19.0391 20.8145 19.1152 20.6359C19.1913 20.4574 19.3027 20.2952 19.4433 20.1586L29.4318 10.4317C29.572 10.2948 29.7385 10.1863 29.9219 10.1122C30.1053 10.0381 30.3018 10 30.5003 10C30.6988 10 30.8954 10.0381 31.0788 10.1122C31.2621 10.1863 31.4287 10.2948 31.5689 10.4317L41.5574 20.1586C41.6977 20.2953 41.809 20.4575 41.885 20.6361C41.9609 20.8146 42 21.006 42 21.1992C42 21.3925 41.9609 21.5838 41.885 21.7624C41.809 21.9409 41.6977 22.1032 41.5574 22.2398C41.4171 22.3765 41.2505 22.4849 41.0671 22.5588C40.8838 22.6328 40.6873 22.6708 40.4888 22.6708C40.2904 22.6708 40.0939 22.6328 39.9105 22.5588C39.7272 22.4849 39.5606 22.3765 39.4202 22.2398L32.0236 15.0368L32.0236 31.524C32.0236 32.3358 31.3415 33 30.5079 33C29.6743 33 28.9922 32.3358 28.9922 31.524Z" fill="white"/>
</svg>
