<svg width="62" height="62" viewBox="0 0 62 62" fill="none" xmlns="http://www.w3.org/2000/svg">
<circle cx="31" cy="31" r="31" fill="#D5F3F2"/>
<path d="M28.9922 30.476L28.9922 46.9632L21.5956 39.7602C21.0044 39.1845 20.0344 39.1845 19.4433 39.7602C19.3027 39.8967 19.1913 40.0589 19.1152 40.2375C19.0391 40.4161 19 40.6075 19 40.8008C19 40.9941 19.0391 41.1855 19.1152 41.3641C19.1913 41.5426 19.3027 41.7048 19.4433 41.8414L29.4318 51.5683C29.572 51.7052 29.7385 51.8137 29.9219 51.8878C30.1053 51.9619 30.3018 52 30.5003 52C30.6988 52 30.8954 51.9619 31.0788 51.8878C31.2621 51.8137 31.4287 51.7052 31.5689 51.5683L41.5574 41.8414C41.6977 41.7047 41.809 41.5425 41.885 41.3639C41.9609 41.1854 42 40.994 42 40.8008C42 40.6075 41.9609 40.4162 41.885 40.2376C41.809 40.0591 41.6977 39.8968 41.5574 39.7602C41.4171 39.6235 41.2505 39.5151 41.0671 39.4412C40.8838 39.3672 40.6873 39.3292 40.4888 39.3292C40.2904 39.3292 40.0939 39.3672 39.9105 39.4412C39.7272 39.5151 39.5606 39.6235 39.4202 39.7602L32.0236 46.9632L32.0236 30.476C32.0236 29.6642 31.3415 29 30.5079 29C29.6743 29 28.9922 29.6642 28.9922 30.476Z" fill="#1BE3CE"/>
</svg>
