<svg width="22" height="22" viewBox="0 0 22 22" fill="none" xmlns="http://www.w3.org/2000/svg">
<rect width="22" height="22" rx="5" fill="#4F6FD8"/>
<path fill-rule="evenodd" clip-rule="evenodd" d="M11.6667 11.6667V16.3333C11.6667 16.5101 11.5964 16.6797 11.4714 16.8047C11.3464 16.9298 11.1768 17 11 17C10.8232 17 10.6536 16.9298 10.5286 16.8047C10.4036 16.6797 10.3333 16.5101 10.3333 16.3333V11.6667H5.66667C5.48986 11.6667 5.32029 11.5964 5.19526 11.4714C5.07024 11.3464 5 11.1768 5 11C5 10.8232 5.07024 10.6536 5.19526 10.5286C5.32029 10.4036 5.48986 10.3333 5.66667 10.3333H10.3333V5.66667C10.3333 5.48986 10.4036 5.32029 10.5286 5.19526C10.6536 5.07024 10.8232 5 11 5C11.1768 5 11.3464 5.07024 11.4714 5.19526C11.5964 5.32029 11.6667 5.48986 11.6667 5.66667V10.3333H16.3333C16.5101 10.3333 16.6797 10.4036 16.8047 10.5286C16.9298 10.6536 17 10.8232 17 11C17 11.1768 16.9298 11.3464 16.8047 11.4714C16.6797 11.5964 16.5101 11.6667 16.3333 11.6667H11.6667Z" fill="white"/>
</svg>
