<svg width="24" height="17" viewBox="0 0 24 17" fill="none" xmlns="http://www.w3.org/2000/svg">
<path d="M23.6731 7.68775L16.5311 0.336394C16.0954 -0.112131 15.3887 -0.112131 14.9529 0.336394C14.5171 0.78501 14.5171 1.51224 14.9529 1.96086L20.1899 7.35134H1.11594C0.499672 7.35134 0 7.86566 0 8.49999C0 9.13423 0.499672 9.64864 1.11594 9.64864H20.1899L14.9531 15.0391C14.5173 15.4877 14.5173 16.215 14.9531 16.6636C15.1709 16.8877 15.4566 17 15.7422 17C16.0278 17 16.3134 16.8877 16.5313 16.6636L23.6731 9.31222C24.109 8.86361 24.109 8.13637 23.6731 7.68775Z" fill="white"/>
</svg>
