<svg width="13" height="13" viewBox="0 0 13 13" fill="none" xmlns="http://www.w3.org/2000/svg">
<path fill-rule="evenodd" clip-rule="evenodd" d="M0 6.5C0 2.912 2.9055 0 6.4935 0C10.088 0 13 2.912 13 6.5C13 10.088 10.088 13 6.4935 13C2.9055 13 0 10.088 0 6.5ZM9.08048 3.89996H10.998C10.374 2.82746 9.37948 1.99546 8.18348 1.58596C8.57348 2.30746 8.87248 3.08746 9.08048 3.89996ZM6.49998 1.32603C7.03948 2.10603 7.46198 2.97053 7.74148 3.90003H5.25848C5.53798 2.97053 5.96048 2.10603 6.49998 1.32603ZM1.3 6.5C1.3 6.9485 1.365 7.384 1.469 7.8H3.666C3.614 7.371 3.575 6.942 3.575 6.5C3.575 6.058 3.614 5.629 3.666 5.2H1.469C1.365 5.616 1.3 6.0515 1.3 6.5ZM2.00197 9.1H3.91947C4.12747 9.9125 4.42647 10.6925 4.81647 11.414C3.62047 11.0045 2.62597 10.179 2.00197 9.1ZM2.00197 3.89996H3.91947C4.12747 3.08746 4.42647 2.30746 4.81647 1.58596C3.62047 1.99546 2.62597 2.82096 2.00197 3.89996ZM6.49998 11.674C5.96048 10.894 5.53798 10.0295 5.25848 9.1H7.74148C7.46198 10.0295 7.03948 10.894 6.49998 11.674ZM4.979 7.8H8.021C8.0795 7.371 8.125 6.942 8.125 6.5C8.125 6.058 8.0795 5.6225 8.021 5.2H4.979C4.9205 5.6225 4.875 6.058 4.875 6.5C4.875 6.942 4.9205 7.371 4.979 7.8ZM8.18348 11.414C8.57348 10.6925 8.87248 9.9125 9.08048 9.1H10.998C10.374 10.1725 9.37948 11.0045 8.18348 11.414ZM9.42499 6.5C9.42499 6.942 9.38599 7.371 9.33399 7.8H11.531C11.635 7.384 11.7 6.9485 11.7 6.5C11.7 6.0515 11.635 5.616 11.531 5.2H9.33399C9.38599 5.629 9.42499 6.058 9.42499 6.5Z" fill="white"/>
</svg>
