<svg width="62" height="62" viewBox="0 0 62 62" fill="none" xmlns="http://www.w3.org/2000/svg">
<circle r="31" transform="matrix(1 0 0 -1 31 31)" fill="#4F6FD8"/>
<path d="M28.9922 40.524L28.9922 24.0368L21.5956 31.2398C21.0044 31.8155 20.0344 31.8155 19.4433 31.2398C19.3027 31.1033 19.1913 30.9411 19.1152 30.7625C19.0391 30.5839 19 30.3925 19 30.1992C19 30.0059 19.0391 29.8145 19.1152 29.6359C19.1913 29.4574 19.3027 29.2952 19.4433 29.1586L29.4318 19.4317C29.572 19.2948 29.7385 19.1863 29.9219 19.1122C30.1053 19.0381 30.3018 19 30.5003 19C30.6988 19 30.8954 19.0381 31.0788 19.1122C31.2621 19.1863 31.4287 19.2948 31.5689 19.4317L41.5574 29.1586C41.6977 29.2953 41.809 29.4575 41.885 29.6361C41.9609 29.8146 42 30.006 42 30.1992C42 30.3925 41.9609 30.5838 41.885 30.7624C41.809 30.9409 41.6977 31.1032 41.5574 31.2398C41.4171 31.3765 41.2505 31.4849 41.0671 31.5588C40.8838 31.6328 40.6873 31.6708 40.4888 31.6708C40.2904 31.6708 40.0939 31.6328 39.9105 31.5588C39.7272 31.4849 39.5606 31.3765 39.4202 31.2398L32.0236 24.0368L32.0236 40.524C32.0236 41.3358 31.3415 42 30.5079 42C29.6743 42 28.9922 41.3358 28.9922 40.524Z" fill="white"/>
</svg>
