<svg width="17" height="21" viewBox="0 0 17 21" fill="none" xmlns="http://www.w3.org/2000/svg">
<path d="M5.23077 6.5625H6.53846V17.0625H5.23077V6.5625Z" fill="#4F6FD8"/>
<path d="M7.84615 6.5625H9.15385V17.0625H7.84615V6.5625Z" fill="#4F6FD8"/>
<path d="M10.4615 6.5625H11.7692V17.0625H10.4615V6.5625Z" fill="#4F6FD8"/>
<path d="M0 2.625H17V3.9375H0V2.625Z" fill="#4F6FD8"/>
<path d="M11.7692 2.625H10.4615V1.96875C10.4615 1.575 10.2 1.3125 9.80769 1.3125H7.19231C6.8 1.3125 6.53846 1.575 6.53846 1.96875V2.625H5.23077V1.96875C5.23077 0.853125 6.08077 0 7.19231 0H9.80769C10.9192 0 11.7692 0.853125 11.7692 1.96875V2.625Z" fill="#4F6FD8"/>
<path d="M12.4231 21H4.57692C3.53077 21 2.61538 20.1469 2.48462 19.0969L1.30769 3.34688L2.61538 3.21562L3.79231 18.9656C3.79231 19.3594 4.18462 19.6875 4.57692 19.6875H12.4231C12.8154 19.6875 13.1423 19.3594 13.2077 18.9656L14.3846 3.21562L15.6923 3.34688L14.5154 19.0969C14.3846 20.1469 13.4692 21 12.4231 21Z" fill="#4F6FD8"/>
</svg>
