<svg width="28" height="14" viewBox="0 0 28 14" fill="none" xmlns="http://www.w3.org/2000/svg">
<path d="M21.7 0.722656C25.1767 0.722656 28 3.49932 28 6.99932C28 10.4527 25.1767 13.2643 21.7 13.2643C20.0083 13.2643 18.4333 12.611 17.2433 11.4327L14 8.56266L10.6983 11.491C9.56667 12.6227 7.98 13.276 6.3 13.276C2.82333 13.276 0 10.4527 0 6.99932C0 3.54599 2.82333 0.722656 6.3 0.722656C7.98 0.722656 9.56667 1.37599 10.7567 2.56599L14 5.43599L17.3017 2.50766C18.4333 1.37599 20.02 0.722656 21.7 0.722656ZM9.1 9.78766L12.25 6.99932L9.14667 4.25766C8.35333 3.46432 7.36167 3.05599 6.3 3.05599C4.11833 3.05599 2.33333 4.81766 2.33333 6.99932C2.33333 9.18099 4.11833 10.9427 6.3 10.9427C7.36167 10.9427 8.35333 10.5343 9.1 9.78766ZM18.9 4.21099L15.75 6.99932L18.8533 9.74099C19.6467 10.5343 20.65 10.9427 21.7 10.9427C23.8817 10.9427 25.6667 9.18099 25.6667 6.99932C25.6667 4.81766 23.8817 3.05599 21.7 3.05599C20.6383 3.05599 19.6467 3.46432 18.9 4.21099Z" fill="black"/>
</svg>
